<svg xmlns="http://www.w3.org/2000/svg" xmlns:xlink="http://www.w3.org/1999/xlink" version="1.1" data-diagram-type="CLASS" style="width:934px;height:1034px;background:#FFFFFF;" width="934px" height="1034px" viewBox="0 0 934 1034" zoomAndPan="magnify" preserveAspectRatio="none" contentStyleType="text/css"><?plantuml 1.2026.7beta11?><defs/><g font-family="sans-serif" lengthAdjust="spacing"><g class="title" data-source-line="1"><text x="301.902" y="22.995" fill="#000" font-size="14" textLength="323.859" font-weight="700">Aquality Store - Modelo Entidad Relación</text></g><!--class roles--><g class="entity" data-qualified-name="roles" id="ent0001" data-source-line="3"><rect x="234.02" y="93.187" width="153.381" height="80.594" fill="#F1F1F1" style="stroke:#181818;stroke-width:0.5;" rx="2.5" ry="2.5"/><ellipse cx="289.401" cy="109.187" rx="11" ry="11" fill="#ADD1B2" style="stroke:#181818;stroke-width:1;"/><path d="M293.511,115.187 L285.792,115.187 L285.792,102.796 L293.511,102.796 L293.511,104.952 L288.245,104.952 L288.245,107.624 L293.011,107.624 L293.011,109.781 L288.245,109.781 L288.245,113.031 L293.511,113.031 L293.511,115.187 Z " fill="#000"/><text x="309.901" y="114.034" fill="#000" font-size="14" textLength="34.118">roles</text><line x1="235.02" y1="125.187" x2="386.401" y2="125.187" style="stroke:#181818;stroke-width:0.5;"/><g data-visibility-modifier="IE_MANDATORY"><ellipse cx="245.02" cy="138.835" rx="3" ry="3" fill="#000" style="stroke:#000;stroke-width:1;"/></g><text x="254.02" y="142.182" fill="#000" font-size="14" textLength="104.166">id BIGINT «PK»</text><line x1="235.02" y1="149.484" x2="386.401" y2="149.484" style="stroke:#181818;stroke-width:1;"/><text x="240.02" y="166.479" fill="#000" font-size="14" textLength="141.381">name VARCHAR(50)</text></g><!--class users--><g class="entity" data-qualified-name="users" id="ent0002" data-source-line="9"><rect x="193.79" y="282.667" width="233.833" height="243.563" fill="#F1F1F1" style="stroke:#181818;stroke-width:0.5;" rx="2.5" ry="2.5"/><ellipse cx="287.541" cy="298.667" rx="11" ry="11" fill="#ADD1B2" style="stroke:#181818;stroke-width:1;"/><path d="M291.651,304.667 L283.932,304.667 L283.932,292.276 L291.651,292.276 L291.651,294.433 L286.385,294.433 L286.385,297.104 L291.151,297.104 L291.151,299.261 L286.385,299.261 L286.385,302.511 L291.651,302.511 L291.651,304.667 Z " fill="#000"/><text x="308.041" y="303.514" fill="#000" font-size="14" textLength="37.83">users</text><line x1="194.79" y1="314.667" x2="426.623" y2="314.667" style="stroke:#181818;stroke-width:0.5;"/><g data-visibility-modifier="IE_MANDATORY"><ellipse cx="204.79" cy="328.315" rx="3" ry="3" fill="#000" style="stroke:#000;stroke-width:1;"/></g><text x="213.79" y="331.662" fill="#000" font-size="14" textLength="104.166">id BIGINT «PK»</text><line x1="194.79" y1="338.964" x2="426.623" y2="338.964" style="stroke:#181818;stroke-width:1;"/><text x="199.79" y="355.959" fill="#000" font-size="14" textLength="184.646">first_name VARCHAR(100)</text><text x="199.79" y="372.256" fill="#000" font-size="14" textLength="182.54">last_name VARCHAR(100)</text><text x="199.79" y="388.553" fill="#000" font-size="14" textLength="145.489">phone VARCHAR(30)</text><text x="199.79" y="404.849" fill="#000" font-size="14" textLength="190.203">email VARCHAR(150) «UK»</text><text x="199.79" y="421.146" fill="#000" font-size="14" textLength="165.895">address VARCHAR(255)</text><text x="199.79" y="437.443" fill="#000" font-size="14" textLength="221.833">username VARCHAR(100) «UK»</text><text x="199.79" y="453.74" fill="#000" font-size="14" textLength="217.916">password_hash VARCHAR(255)</text><text x="199.79" y="470.037" fill="#000" font-size="14" textLength="129.131">enabled BOOLEAN</text><text x="199.79" y="486.334" fill="#000" font-size="14" textLength="137.601">role_id BIGINT «FK»</text><text x="199.79" y="502.631" fill="#000" font-size="14" textLength="150.514">created_at DATETIME</text><text x="199.79" y="518.928" fill="#000" font-size="14" textLength="155.094">updated_at DATETIME</text></g><!--class categories--><g class="entity" data-qualified-name="categories" id="ent0003" data-source-line="25"><rect x="462.57" y="347.857" width="162.288" height="113.188" fill="#F1F1F1" style="stroke:#181818;stroke-width:0.5;" rx="2.5" ry="2.5"/><ellipse cx="503.177" cy="363.857" rx="11" ry="11" fill="#ADD1B2" style="stroke:#181818;stroke-width:1;"/><path d="M507.286,369.857 L499.568,369.857 L499.568,357.466 L507.286,357.466 L507.286,359.623 L502.021,359.623 L502.021,362.294 L506.786,362.294 L506.786,364.451 L502.021,364.451 L502.021,367.701 L507.286,367.701 L507.286,369.857 Z " fill="#000"/><text x="522.867" y="368.704" fill="#000" font-size="14" textLength="73.384">categories</text><line x1="463.57" y1="379.857" x2="623.858" y2="379.857" style="stroke:#181818;stroke-width:0.5;"/><g data-visibility-modifier="IE_MANDATORY"><ellipse cx="473.57" cy="393.505" rx="3" ry="3" fill="#000" style="stroke:#000;stroke-width:1;"/></g><text x="482.57" y="396.852" fill="#000" font-size="14" textLength="104.166">id BIGINT «PK»</text><line x1="463.57" y1="404.154" x2="623.858" y2="404.154" style="stroke:#181818;stroke-width:1;"/><text x="468.57" y="421.149" fill="#000" font-size="14" textLength="150.288">name VARCHAR(100)</text><text x="468.57" y="437.446" fill="#000" font-size="14" textLength="117.831">description TEXT</text><text x="468.57" y="453.743" fill="#000" font-size="14" textLength="115.343">active BOOLEAN</text></g><!--class products--><g class="entity" data-qualified-name="products" id="ent0004" data-source-line="33"><rect x="438.86" y="586.227" width="191.71" height="210.969" fill="#F1F1F1" style="stroke:#181818;stroke-width:0.5;" rx="2.5" ry="2.5"/><ellipse cx="499.741" cy="602.227" rx="11" ry="11" fill="#ADD1B2" style="stroke:#181818;stroke-width:1;"/><path d="M503.85,608.227 L496.131,608.227 L496.131,595.836 L503.85,595.836 L503.85,597.993 L498.585,597.993 L498.585,600.664 L503.35,600.664 L503.35,602.821 L498.585,602.821 L498.585,606.071 L503.85,606.071 L503.85,608.227 Z " fill="#000"/><text x="520.241" y="607.074" fill="#000" font-size="14" textLength="61.448">products</text><line x1="439.86" y1="618.227" x2="629.57" y2="618.227" style="stroke:#181818;stroke-width:0.5;"/><g data-visibility-modifier="IE_MANDATORY"><ellipse cx="449.86" cy="631.875" rx="3" ry="3" fill="#000" style="stroke:#000;stroke-width:1;"/></g><text x="458.86" y="635.222" fill="#000" font-size="14" textLength="104.166">id BIGINT «PK»</text><line x1="439.86" y1="642.524" x2="629.57" y2="642.524" style="stroke:#181818;stroke-width:1;"/><text x="444.86" y="659.519" fill="#000" font-size="14" textLength="150.288">name VARCHAR(150)</text><text x="444.86" y="675.816" fill="#000" font-size="14" textLength="117.831">description TEXT</text><text x="444.86" y="692.113" fill="#000" font-size="14" textLength="179.71">image_url VARCHAR(500)</text><text x="444.86" y="708.409" fill="#000" font-size="14" textLength="144.375">price DECIMAL(12,2)</text><text x="444.86" y="724.706" fill="#000" font-size="14" textLength="64.757">stock INT</text><text x="444.86" y="741.003" fill="#000" font-size="14" textLength="115.343">active BOOLEAN</text><text x="444.86" y="757.3" fill="#000" font-size="14" textLength="172.648">category_id BIGINT «FK»</text><text x="444.86" y="773.597" fill="#000" font-size="14" textLength="150.514">created_at DATETIME</text><text x="444.86" y="789.894" fill="#000" font-size="14" textLength="155.094">updated_at DATETIME</text></g><!--class carts--><g class="entity" data-qualified-name="carts" id="ent0005" data-source-line="47"><rect x="237.16" y="635.117" width="167.094" height="113.188" fill="#F1F1F1" style="stroke:#181818;stroke-width:0.5;" rx="2.5" ry="2.5"/><ellipse cx="299.049" cy="651.117" rx="11" ry="11" fill="#ADD1B2" style="stroke:#181818;stroke-width:1;"/><path d="M303.159,657.117 L295.44,657.117 L295.44,644.726 L303.159,644.726 L303.159,646.882 L297.893,646.882 L297.893,649.554 L302.659,649.554 L302.659,651.711 L297.893,651.711 L297.893,654.961 L303.159,654.961 L303.159,657.117 Z " fill="#000"/><text x="319.549" y="655.964" fill="#000" font-size="14" textLength="34.815">carts</text><line x1="238.16" y1="667.117" x2="403.254" y2="667.117" style="stroke:#181818;stroke-width:0.5;"/><g data-visibility-modifier="IE_MANDATORY"><ellipse cx="248.16" cy="680.765" rx="3" ry="3" fill="#000" style="stroke:#000;stroke-width:1;"/></g><text x="257.16" y="684.112" fill="#000" font-size="14" textLength="104.166">id BIGINT «PK»</text><line x1="238.16" y1="691.414" x2="403.254" y2="691.414" style="stroke:#181818;stroke-width:1;"/><text x="243.16" y="708.409" fill="#000" font-size="14" textLength="141.313">user_id BIGINT «FK»</text><text x="243.16" y="724.706" fill="#000" font-size="14" textLength="150.514">created_at DATETIME</text><text x="243.16" y="741.003" fill="#000" font-size="14" textLength="155.094">updated_at DATETIME</text></g><!--class cart_items--><g class="entity" data-qualified-name="cart_items" id="ent0006" data-source-line="55"><rect x="227.46" y="873.497" width="190.5" height="129.484" fill="#F1F1F1" style="stroke:#181818;stroke-width:0.5;" rx="2.5" ry="2.5"/><ellipse cx="281.737" cy="889.497" rx="11" ry="11" fill="#ADD1B2" style="stroke:#181818;stroke-width:1;"/><path d="M285.847,895.497 L278.128,895.497 L278.128,883.106 L285.847,883.106 L285.847,885.263 L280.581,885.263 L280.581,887.934 L285.347,887.934 L285.347,890.091 L280.581,890.091 L280.581,893.341 L285.847,893.341 L285.847,895.497 Z " fill="#000"/><text x="302.237" y="894.344" fill="#000" font-size="14" textLength="73.445">cart_items</text><line x1="228.46" y1="905.497" x2="416.96" y2="905.497" style="stroke:#181818;stroke-width:0.5;"/><g data-visibility-modifier="IE_MANDATORY"><ellipse cx="238.46" cy="919.145" rx="3" ry="3" fill="#000" style="stroke:#000;stroke-width:1;"/></g><text x="247.46" y="922.492" fill="#000" font-size="14" textLength="104.166">id BIGINT «PK»</text><line x1="228.46" y1="929.794" x2="416.96" y2="929.794" style="stroke:#181818;stroke-width:1;"/><text x="233.46" y="946.789" fill="#000" font-size="14" textLength="138.298">cart_id BIGINT «FK»</text><text x="233.46" y="963.086" fill="#000" font-size="14" textLength="164.931">product_id BIGINT «FK»</text><text x="233.46" y="979.383" fill="#000" font-size="14" textLength="85.969">quantity INT</text><text x="233.46" y="995.679" fill="#000" font-size="14" textLength="178.5">unit_price DECIMAL(12,2)</text></g><!--class orders--><g class="entity" data-qualified-name="orders" id="ent0007" data-source-line="64"><rect x="665.76" y="618.827" width="253.903" height="145.781" fill="#F1F1F1" style="stroke:#181818;stroke-width:0.5;" rx="2.5" ry="2.5"/><ellipse cx="766.026" cy="634.827" rx="11" ry="11" fill="#ADD1B2" style="stroke:#181818;stroke-width:1;"/><path d="M770.135,640.827 L762.417,640.827 L762.417,628.436 L770.135,628.436 L770.135,630.593 L764.87,630.593 L764.87,633.264 L769.635,633.264 L769.635,635.421 L764.87,635.421 L764.87,638.671 L770.135,638.671 L770.135,640.827 Z " fill="#000"/><text x="786.526" y="639.674" fill="#000" font-size="14" textLength="44.871">orders</text><line x1="666.76" y1="650.827" x2="918.663" y2="650.827" style="stroke:#181818;stroke-width:0.5;"/><g data-visibility-modifier="IE_MANDATORY"><ellipse cx="676.76" cy="664.475" rx="3" ry="3" fill="#000" style="stroke:#000;stroke-width:1;"/></g><text x="685.76" y="667.822" fill="#000" font-size="14" textLength="104.166">id BIGINT «PK»</text><line x1="666.76" y1="675.124" x2="918.663" y2="675.124" style="stroke:#181818;stroke-width:1;"/><text x="671.76" y="692.119" fill="#000" font-size="14" textLength="241.903">order_number VARCHAR(50) «UK»</text><text x="671.76" y="708.416" fill="#000" font-size="14" textLength="141.313">user_id BIGINT «FK»</text><text x="671.76" y="724.713" fill="#000" font-size="14" textLength="151.956">order_date DATETIME</text><text x="671.76" y="741.009" fill="#000" font-size="14" textLength="144.696">status VARCHAR(30)</text><text x="671.76" y="757.306" fill="#000" font-size="14" textLength="141.545">total DECIMAL(12,2)</text></g><!--class order_items--><g class="entity" data-qualified-name="order_items" id="ent0008" data-source-line="74"><rect x="455.46" y="865.347" width="190.5" height="145.781" fill="#F1F1F1" style="stroke:#181818;stroke-width:0.5;" rx="2.5" ry="2.5"/><ellipse cx="504.71" cy="881.347" rx="11" ry="11" fill="#ADD1B2" style="stroke:#181818;stroke-width:1;"/><path d="M508.819,887.347 L501.1,887.347 L501.1,874.956 L508.819,874.956 L508.819,877.113 L503.553,877.113 L503.553,879.784 L508.319,879.784 L508.319,881.941 L503.553,881.941 L503.553,885.191 L508.819,885.191 L508.819,887.347 Z " fill="#000"/><text x="525.21" y="886.194" fill="#000" font-size="14" textLength="83.501">order_items</text><line x1="456.46" y1="897.347" x2="644.96" y2="897.347" style="stroke:#181818;stroke-width:0.5;"/><g data-visibility-modifier="IE_MANDATORY"><ellipse cx="466.46" cy="910.995" rx="3" ry="3" fill="#000" style="stroke:#000;stroke-width:1;"/></g><text x="475.46" y="914.342" fill="#000" font-size="14" textLength="104.166">id BIGINT «PK»</text><line x1="456.46" y1="921.644" x2="644.96" y2="921.644" style="stroke:#181818;stroke-width:1;"/><text x="461.46" y="938.639" fill="#000" font-size="14" textLength="148.354">order_id BIGINT «FK»</text><text x="461.46" y="954.936" fill="#000" font-size="14" textLength="164.931">product_id BIGINT «FK»</text><text x="461.46" y="971.233" fill="#000" font-size="14" textLength="85.969">quantity INT</text><text x="461.46" y="987.529" fill="#000" font-size="14" textLength="178.5">unit_price DECIMAL(12,2)</text><text x="461.46" y="1003.826" fill="#000" font-size="14" textLength="166.599">subtotal DECIMAL(12,2)</text></g><!--class payments--><g class="entity" data-qualified-name="payments" id="ent0009" data-source-line="84"><rect x="681.99" y="857.197" width="221.446" height="162.078" fill="#F1F1F1" style="stroke:#181818;stroke-width:0.5;" rx="2.5" ry="2.5"/><ellipse cx="753.634" cy="873.197" rx="11" ry="11" fill="#ADD1B2" style="stroke:#181818;stroke-width:1;"/><path d="M757.743,879.197 L750.025,879.197 L750.025,866.806 L757.743,866.806 L757.743,868.963 L752.478,868.963 L752.478,871.634 L757.243,871.634 L757.243,873.791 L752.478,873.791 L752.478,877.041 L757.743,877.041 L757.743,879.197 Z " fill="#000"/><text x="774.134" y="878.044" fill="#000" font-size="14" textLength="69.658">payments</text><line x1="682.99" y1="889.197" x2="902.436" y2="889.197" style="stroke:#181818;stroke-width:0.5;"/><g data-visibility-modifier="IE_MANDATORY"><ellipse cx="692.99" cy="902.845" rx="3" ry="3" fill="#000" style="stroke:#000;stroke-width:1;"/></g><text x="701.99" y="906.192" fill="#000" font-size="14" textLength="104.166">id BIGINT «PK»</text><line x1="682.99" y1="913.494" x2="902.436" y2="913.494" style="stroke:#181818;stroke-width:1;"/><text x="687.99" y="930.489" fill="#000" font-size="14" textLength="148.354">order_id BIGINT «FK»</text><text x="687.99" y="946.786" fill="#000" font-size="14" textLength="209.446">transaction_id VARCHAR(150)</text><text x="687.99" y="963.083" fill="#000" font-size="14" textLength="163.55">amount DECIMAL(12,2)</text><text x="687.99" y="979.379" fill="#000" font-size="14" textLength="155.743">method VARCHAR(30)</text><text x="687.99" y="995.676" fill="#000" font-size="14" textLength="144.696">status VARCHAR(30)</text><text x="687.99" y="1011.973" fill="#000" font-size="14" textLength="127.121">paid_at DATETIME</text></g><!--class contact_messages--><g class="entity" data-qualified-name="contact_messages" id="ent0010" data-source-line="95"><rect x="422.05" y="44.297" width="173.328" height="178.375" fill="#F1F1F1" style="stroke:#181818;stroke-width:0.5;" rx="2.5" ry="2.5"/><ellipse cx="442.327" cy="60.297" rx="11" ry="11" fill="#ADD1B2" style="stroke:#181818;stroke-width:1;"/><path d="M446.436,66.297 L438.717,66.297 L438.717,53.906 L446.436,53.906 L446.436,56.063 L441.17,56.063 L441.17,58.734 L445.936,58.734 L445.936,60.891 L441.17,60.891 L441.17,64.141 L446.436,64.141 L446.436,66.297 Z " fill="#000"/><text x="457.499" y="65.144" fill="#000" font-size="14" textLength="129.603">contact_messages</text><line x1="423.05" y1="76.297" x2="594.378" y2="76.297" style="stroke:#181818;stroke-width:0.5;"/><g data-visibility-modifier="IE_MANDATORY"><ellipse cx="433.05" cy="89.945" rx="3" ry="3" fill="#000" style="stroke:#000;stroke-width:1;"/></g><text x="442.05" y="93.292" fill="#000" font-size="14" textLength="104.166">id BIGINT «PK»</text><line x1="423.05" y1="100.594" x2="594.378" y2="100.594" style="stroke:#181818;stroke-width:1;"/><text x="428.05" y="117.589" fill="#000" font-size="14" textLength="150.288">name VARCHAR(100)</text><text x="428.05" y="133.886" fill="#000" font-size="14" textLength="149.194">email VARCHAR(150)</text><text x="428.05" y="150.183" fill="#000" font-size="14" textLength="161.328">subject VARCHAR(200)</text><text x="428.05" y="166.479" fill="#000" font-size="14" textLength="102.908">message TEXT</text><text x="428.05" y="182.776" fill="#000" font-size="14" textLength="144.696">status VARCHAR(30)</text><text x="428.05" y="199.073" fill="#000" font-size="14" textLength="150.514">created_at DATETIME</text><text x="428.05" y="215.37" fill="#000" font-size="14" textLength="145.414">replied_at DATETIME</text></g><!--class password_reset_tokens--><g class="entity" data-qualified-name="password_reset_tokens" id="ent0011" data-source-line="107"><rect x="7" y="626.977" width="195.42" height="129.484" fill="#F1F1F1" style="stroke:#181818;stroke-width:0.5;" rx="2.5" ry="2.5"/><ellipse cx="22" cy="642.977" rx="11" ry="11" fill="#ADD1B2" style="stroke:#181818;stroke-width:1;"/><path d="M26.109,648.977 L18.391,648.977 L18.391,636.586 L26.109,636.586 L26.109,638.743 L20.844,638.743 L20.844,641.414 L25.609,641.414 L25.609,643.571 L20.844,643.571 L20.844,646.821 L26.109,646.821 L26.109,648.977 Z " fill="#000"/><text x="36" y="647.824" fill="#000" font-size="14" textLength="163.42">password_reset_tokens</text><line x1="8" y1="658.977" x2="201.42" y2="658.977" style="stroke:#181818;stroke-width:0.5;"/><g data-visibility-modifier="IE_MANDATORY"><ellipse cx="18" cy="672.625" rx="3" ry="3" fill="#000" style="stroke:#000;stroke-width:1;"/></g><text x="27" y="675.972" fill="#000" font-size="14" textLength="104.166">id BIGINT «PK»</text><line x1="8" y1="683.274" x2="201.42" y2="683.274" style="stroke:#181818;stroke-width:1;"/><text x="13" y="700.269" fill="#000" font-size="14" textLength="141.313">user_id BIGINT «FK»</text><text x="13" y="716.566" fill="#000" font-size="14" textLength="150.233">token VARCHAR(255)</text><text x="13" y="732.863" fill="#000" font-size="14" textLength="148.217">expires_at DATETIME</text><text x="13" y="749.159" fill="#000" font-size="14" textLength="106.456">used BOOLEAN</text></g><!--link roles to users--><g class="link" data-entity-1="ent0001" data-entity-2="ent0002" id="lnk12" data-source-line="116" data-link-type="crowfoot"><path d="M310.71,182.167 C310.71,210.877 310.71,225.327 310.71,264.267" style="stroke:#181818;stroke-width:1;" fill="none" id="roles-users" codeLine="116"/><line x1="306.71" y1="178.167" x2="314.71" y2="178.167" style="stroke:#181818;stroke-width:1;"/><line x1="306.71" y1="181.167" x2="314.71" y2="181.167" style="stroke:#181818;stroke-width:1;"/><line x1="310.71" y1="182.167" x2="310.71" y2="174.167" style="stroke:#181818;stroke-width:1;"/><line x1="310.71" y1="274.267" x2="316.71" y2="282.267" style="stroke:#181818;stroke-width:1;"/><line x1="310.71" y1="274.267" x2="304.71" y2="282.267" style="stroke:#181818;stroke-width:1;"/><line x1="310.71" y1="274.267" x2="310.71" y2="282.267" style="stroke:#181818;stroke-width:1;"/><ellipse cx="310.71" cy="268.267" rx="4" ry="4" fill="none" style="stroke:#181818;stroke-width:1;"/></g><!--link categories to products--><g class="link" data-entity-1="ent0003" data-entity-2="ent0004" id="lnk13" data-source-line="117" data-link-type="crowfoot"><path d="M541.689,469.463 C540.579,504.833 539.918,525.656 538.588,567.756" style="stroke:#181818;stroke-width:1;" fill="none" id="categories-products" codeLine="117"/><line x1="537.816" y1="465.339" x2="545.813" y2="465.59" style="stroke:#181818;stroke-width:1;"/><line x1="537.722" y1="468.338" x2="545.718" y2="468.589" style="stroke:#181818;stroke-width:1;"/><line x1="541.689" y1="469.463" x2="541.94" y2="461.467" style="stroke:#181818;stroke-width:1;"/><line x1="538.273" y1="577.751" x2="544.017" y2="585.936" style="stroke:#181818;stroke-width:1;"/><line x1="538.273" y1="577.751" x2="532.023" y2="585.557" style="stroke:#181818;stroke-width:1;"/><line x1="538.273" y1="577.751" x2="538.02" y2="585.747" style="stroke:#181818;stroke-width:1;"/><ellipse cx="538.462" cy="571.754" rx="4" ry="4" fill="none" style="stroke:#181818;stroke-width:1;"/></g><!--link users to carts--><g class="link" data-entity-1="ent0002" data-entity-2="ent0005" id="lnk14" data-source-line="119" data-link-type="association"><path d="M315.23,534.422 C316.55,572.082 317.132,588.816 318.222,619.766" style="stroke:#181818;stroke-width:1;" fill="none" id="users-carts" codeLine="119"/><line x1="311.093" y1="530.565" x2="319.088" y2="530.284" style="stroke:#181818;stroke-width:1;"/><line x1="311.198" y1="533.563" x2="319.193" y2="533.282" style="stroke:#181818;stroke-width:1;"/><line x1="315.23" y1="534.422" x2="314.95" y2="526.427" style="stroke:#181818;stroke-width:1;"/><line x1="318.363" y1="623.764" x2="318.75" y2="634.757" style="stroke:#181818;stroke-width:1;"/><ellipse cx="318.363" cy="623.764" rx="4" ry="4" fill="none" style="stroke:#181818;stroke-width:1;"/><line x1="322.607" y1="630.619" x2="314.612" y2="630.9" style="stroke:#181818;stroke-width:1;"/></g><!--link carts to cart_items--><g class="link" data-entity-1="ent0005" data-entity-2="ent0006" id="lnk15" data-source-line="120" data-link-type="crowfoot"><path d="M321.235,756.507 C321.535,793.577 321.726,816.367 322.036,855.047" style="stroke:#181818;stroke-width:1;" fill="none" id="carts-cart_items" codeLine="120"/><line x1="317.203" y1="752.539" x2="325.202" y2="752.474" style="stroke:#181818;stroke-width:1;"/><line x1="317.227" y1="755.539" x2="325.227" y2="755.474" style="stroke:#181818;stroke-width:1;"/><line x1="321.235" y1="756.507" x2="321.17" y2="748.507" style="stroke:#181818;stroke-width:1;"/><line x1="322.116" y1="865.047" x2="328.18" y2="872.999" style="stroke:#181818;stroke-width:1;"/><line x1="322.116" y1="865.047" x2="316.18" y2="873.095" style="stroke:#181818;stroke-width:1;"/><line x1="322.116" y1="865.047" x2="322.18" y2="873.047" style="stroke:#181818;stroke-width:1;"/><ellipse cx="322.068" cy="859.047" rx="4" ry="4" fill="none" style="stroke:#181818;stroke-width:1;"/></g><!--link products to cart_items--><g class="link" data-entity-1="ent0004" data-entity-2="ent0006" id="lnk16" data-source-line="121" data-link-type="crowfoot"><path d="M438.641,803.522 C416.281,829.322 410.02,836.525 389.91,859.725" style="stroke:#181818;stroke-width:1;" fill="none" id="products-cart_items" codeLine="121"/><line x1="438.238" y1="797.88" x2="444.283" y2="803.119" style="stroke:#181818;stroke-width:1;"/><line x1="436.273" y1="800.147" x2="442.318" y2="805.386" style="stroke:#181818;stroke-width:1;"/><line x1="438.641" y1="803.522" x2="443.88" y2="797.477" style="stroke:#181818;stroke-width:1;"/><line x1="383.36" y1="867.282" x2="382.654" y2="877.257" style="stroke:#181818;stroke-width:1;"/><line x1="383.36" y1="867.282" x2="373.586" y2="869.397" style="stroke:#181818;stroke-width:1;"/><line x1="383.36" y1="867.282" x2="378.12" y2="873.327" style="stroke:#181818;stroke-width:1;"/><ellipse cx="387.29" cy="862.748" rx="4" ry="4" fill="none" style="stroke:#181818;stroke-width:1;"/></g><!--link users to orders--><g class="link" data-entity-1="ent0002" data-entity-2="ent0007" id="lnk17" data-source-line="123" data-link-type="crowfoot"><path d="M434.729,520.471 C440.219,524.091 439.11,523.097 444.71,526.227 C526.8,572.197 563.24,544.807 647.71,586.227 C666.1,595.247 669.755,596.436 687.155,608.266" style="stroke:#181818;stroke-width:1;" fill="none" id="users-orders" codeLine="123"/><line x1="429.187" y1="521.608" x2="433.591" y2="514.929" style="stroke:#181818;stroke-width:1;"/><line x1="431.692" y1="523.26" x2="436.096" y2="516.581" style="stroke:#181818;stroke-width:1;"/><line x1="434.729" y1="520.471" x2="428.05" y2="516.067" style="stroke:#181818;stroke-width:1;"/><line x1="695.424" y1="613.889" x2="705.413" y2="613.425" style="stroke:#181818;stroke-width:1;"/><line x1="695.424" y1="613.889" x2="698.667" y2="623.349" style="stroke:#181818;stroke-width:1;"/><line x1="695.424" y1="613.889" x2="702.04" y2="618.387" style="stroke:#181818;stroke-width:1;"/><ellipse cx="690.462" cy="610.515" rx="4" ry="4" fill="none" style="stroke:#181818;stroke-width:1;"/></g><!--link orders to order_items--><g class="link" data-entity-1="ent0007" data-entity-2="ent0008" id="lnk18" data-source-line="124" data-link-type="crowfoot"><path d="M715.453,770.773 C684.233,802.323 658.978,827.841 627.778,859.361" style="stroke:#181818;stroke-width:1;" fill="none" id="orders-order_items" codeLine="124"/><line x1="715.423" y1="765.117" x2="721.11" y2="770.744" style="stroke:#181818;stroke-width:1;"/><line x1="713.313" y1="767.249" x2="719" y2="772.876" style="stroke:#181818;stroke-width:1;"/><line x1="715.453" y1="770.773" x2="721.08" y2="765.087" style="stroke:#181818;stroke-width:1;"/><line x1="627.778" y1="859.361" x2="626.414" y2="869.268" style="stroke:#181818;stroke-width:1;"/><line x1="627.778" y1="859.361" x2="617.886" y2="860.826" style="stroke:#181818;stroke-width:1;"/><line x1="627.778" y1="859.361" x2="622.15" y2="865.047" style="stroke:#181818;stroke-width:1;"/><line x1="632.028" y1="860.754" x2="626.342" y2="855.126" style="stroke:#181818;stroke-width:1;"/></g><!--link products to order_items--><g class="link" data-entity-1="ent0004" data-entity-2="ent0008" id="lnk19" data-source-line="125" data-link-type="crowfoot"><path d="M542.091,805.46 C543.581,828.28 543.423,825.975 544.813,847.185" style="stroke:#181818;stroke-width:1;" fill="none" id="products-order_items" codeLine="125"/><line x1="537.839" y1="801.729" x2="545.822" y2="801.208" style="stroke:#181818;stroke-width:1;"/><line x1="538.035" y1="804.723" x2="546.018" y2="804.201" style="stroke:#181818;stroke-width:1;"/><line x1="542.091" y1="805.46" x2="541.57" y2="797.477" style="stroke:#181818;stroke-width:1;"/><line x1="545.467" y1="857.164" x2="551.977" y2="864.755" style="stroke:#181818;stroke-width:1;"/><line x1="545.467" y1="857.164" x2="540.003" y2="865.539" style="stroke:#181818;stroke-width:1;"/><line x1="545.467" y1="857.164" x2="545.99" y2="865.147" style="stroke:#181818;stroke-width:1;"/><ellipse cx="545.074" cy="851.177" rx="4" ry="4" fill="none" style="stroke:#181818;stroke-width:1;"/></g><!--link orders to payments--><g class="link" data-entity-1="ent0007" data-entity-2="ent0009" id="lnk20" data-source-line="127" data-link-type="association"><path d="M792.71,773.087 C792.71,801.957 792.71,819.307 792.71,848.917" style="stroke:#181818;stroke-width:1;" fill="none" id="orders-payments" codeLine="127"/><line x1="788.71" y1="769.087" x2="796.71" y2="769.087" style="stroke:#181818;stroke-width:1;"/><line x1="788.71" y1="772.087" x2="796.71" y2="772.087" style="stroke:#181818;stroke-width:1;"/><line x1="792.71" y1="773.087" x2="792.71" y2="765.087" style="stroke:#181818;stroke-width:1;"/><line x1="796.71" y1="852.917" x2="788.71" y2="852.917" style="stroke:#181818;stroke-width:1;"/><line x1="796.71" y1="849.917" x2="788.71" y2="849.917" style="stroke:#181818;stroke-width:1;"/><line x1="792.71" y1="848.917" x2="792.71" y2="856.917" style="stroke:#181818;stroke-width:1;"/></g><!--link users to password_reset_tokens--><g class="link" data-entity-1="ent0002" data-entity-2="ent0011" id="lnk21" data-source-line="129" data-link-type="crowfoot"><path d="M218.665,532.912 C193.765,567.382 182.845,582.502 161.465,612.122" style="stroke:#181818;stroke-width:1;" fill="none" id="users-password_reset_tokens" codeLine="129"/><line x1="217.765" y1="527.327" x2="224.25" y2="532.012" style="stroke:#181818;stroke-width:1;"/><line x1="216.009" y1="529.759" x2="222.494" y2="534.444" style="stroke:#181818;stroke-width:1;"/><line x1="218.665" y1="532.912" x2="223.35" y2="526.427" style="stroke:#181818;stroke-width:1;"/><line x1="155.612" y1="620.23" x2="155.795" y2="630.228" style="stroke:#181818;stroke-width:1;"/><line x1="155.612" y1="620.23" x2="146.065" y2="623.205" style="stroke:#181818;stroke-width:1;"/><line x1="155.612" y1="620.23" x2="150.93" y2="626.717" style="stroke:#181818;stroke-width:1;"/><ellipse cx="159.124" cy="615.365" rx="4" ry="4" fill="none" style="stroke:#181818;stroke-width:1;"/></g><?plantuml-src jLLTRzCm57tFh_3ZG5JQYlesJGfRW8frGoKWtY8tlgncZXti6w1gzglu2Vmnd3XV9KbLrh6NJlTUttDyd7ikSXH0_6yP5Hmtv0Cg3MH25eg1K2IGo1bbP0c2nlptB-bvO4EsK2i1XcmzOl-U4yx8g_cR-Kr8pi_VlxkuACEJIVaZQGBaax-yVEilJsQdpxo7fabcG1_Mv0lN1gETLcUdjbUH4tGqbQwLRCClgoWab8kss7AoY1zhHCgO1cEQ_7GsSySAjZsOxicK6lD3QHQjgLdtpuEaAm7sahUtru5_KyOA6QFknL_NpM8D58555CcL7mRXV14u5YdhnLj5OvkxKve_vcqQrHYOMFCKkP8a33w7JfOO-NTeoBUGgLOiY_4nWBDzW3oXTn1bMdG-dlfPDO-1N0MNyuL_VN8sVJ5rSOCglYSMUOXnAQgJP_Eqaki3BrzyG4-D7764v31uLpu4NptXSD9QWuEhTSqansZe2LfcTWWEdUooD99PiWBTjOdkO8qBvquN8kqAPv1YPdgJZmgfsC_w7mIjwl-ZekLLijL-sYdT9FRVepcZfj8KGwDaKT2RKfgeJE80mmHmhLXFx94tI2aV_Q2LH4iWIgp_sk4_niFw7b-B-HLYRCsvhgyWM_iPOJysgHfImKSdjTaCThC0HgZkGHxh6MMJWItpC-KMfMybfhDwB3EtmFDyCb5RjuYzplAeuhMtUvvRrMKuTvRdEUEhAbilyfg5q4zrssmhb_0gioY2-ROxXBrEtTpEiRmPWhyW1eN_0m00?></g></svg>