<svg xmlns="http://www.w3.org/2000/svg" xmlns:xlink="http://www.w3.org/1999/xlink" version="1.1" data-diagram-type="CLASS" style="width:1155px;height:1211px;background:#FFFFFF;" width="1155px" height="1211px" viewBox="0 0 1155 1211" zoomAndPan="magnify" preserveAspectRatio="none" contentStyleType="text/css"><?plantuml 1.2026.7beta11?><defs/><g font-family="sans-serif" lengthAdjust="spacing"><g class="title" data-source-line="1"><text x="431.892" y="22.995" fill="#000" font-size="14" textLength="285.134" font-weight="700">Aquality Store - Diagrama de Clases</text></g><!--class RoleName--><g class="entity" data-qualified-name="RoleName" id="ent0001" data-source-line="5"><rect x="24.22" y="76.897" width="104.099" height="80.594" fill="#F1F1F1" style="stroke:#181818;stroke-width:0.5;" rx="2.5" ry="2.5"/><ellipse cx="39.22" cy="92.897" rx="11" ry="11" fill="#EB937F" style="stroke:#181818;stroke-width:1;"/><path d="M43.329,98.897 L35.611,98.897 L35.611,86.506 L43.329,86.506 L43.329,88.663 L38.064,88.663 L38.064,91.334 L42.829,91.334 L42.829,93.491 L38.064,93.491 L38.064,96.741 L43.329,96.741 L43.329,98.897 Z " fill="#000"/><text x="53.22" y="97.744" fill="#000" font-size="14" textLength="72.099">RoleName</text><line x1="25.22" y1="108.897" x2="127.319" y2="108.897" style="stroke:#181818;stroke-width:0.5;"/><text x="30.22" y="125.892" fill="#000" font-size="14" textLength="47.038">ADMIN</text><text x="30.22" y="142.189" fill="#000" font-size="14" textLength="79.133">CUSTOMER</text><line x1="25.22" y1="149.491" x2="127.319" y2="149.491" style="stroke:#181818;stroke-width:0.5;"/></g><!--class OrderStatus--><g class="entity" data-qualified-name="OrderStatus" id="ent0002" data-source-line="10"><rect x="162.94" y="44.297" width="116.643" height="145.781" fill="#F1F1F1" style="stroke:#181818;stroke-width:0.5;" rx="2.5" ry="2.5"/><ellipse cx="177.94" cy="60.297" rx="11" ry="11" fill="#EB937F" style="stroke:#181818;stroke-width:1;"/><path d="M182.049,66.297 L174.331,66.297 L174.331,53.906 L182.049,53.906 L182.049,56.063 L176.784,56.063 L176.784,58.734 L181.549,58.734 L181.549,60.891 L176.784,60.891 L176.784,64.141 L182.049,64.141 L182.049,66.297 Z " fill="#000"/><text x="191.94" y="65.144" fill="#000" font-size="14" textLength="84.643">OrderStatus</text><line x1="163.94" y1="76.297" x2="278.583" y2="76.297" style="stroke:#181818;stroke-width:0.5;"/><text x="168.94" y="93.292" fill="#000" font-size="14" textLength="63.991">PENDING</text><text x="168.94" y="109.589" fill="#000" font-size="14" textLength="84.882">CONFIRMED</text><text x="168.94" y="125.886" fill="#000" font-size="14" textLength="91.034">PROCESSING</text><text x="168.94" y="142.183" fill="#000" font-size="14" textLength="60.054">SHIPPED</text><text x="168.94" y="158.479" fill="#000" font-size="14" textLength="79.331">DELIVERED</text><text x="168.94" y="174.776" fill="#000" font-size="14" textLength="83.672">CANCELLED</text><line x1="163.94" y1="182.078" x2="278.583" y2="182.078" style="stroke:#181818;stroke-width:0.5;"/></g><!--class PaymentMethod--><g class="entity" data-qualified-name="PaymentMethod" id="ent0003" data-source-line="19"><rect x="315.01" y="68.747" width="154.516" height="96.891" fill="#F1F1F1" style="stroke:#181818;stroke-width:0.5;" rx="2.5" ry="2.5"/><ellipse cx="333.65" cy="84.747" rx="11" ry="11" fill="#EB937F" style="stroke:#181818;stroke-width:1;"/><path d="M337.759,90.747 L330.041,90.747 L330.041,78.356 L337.759,78.356 L337.759,80.513 L332.494,80.513 L332.494,83.184 L337.259,83.184 L337.259,85.341 L332.494,85.341 L332.494,88.591 L337.759,88.591 L337.759,90.747 Z " fill="#000"/><text x="348.459" y="89.594" fill="#000" font-size="14" textLength="114.427">PaymentMethod</text><line x1="316.01" y1="100.747" x2="468.526" y2="100.747" style="stroke:#181818;stroke-width:0.5;"/><text x="321.01" y="117.742" fill="#000" font-size="14" textLength="119.677">BANK_TRANSFER</text><text x="321.01" y="134.039" fill="#000" font-size="14" textLength="142.516">CASH_ON_DELIVERY</text><text x="321.01" y="150.336" fill="#000" font-size="14" textLength="52.739">ONLINE</text><line x1="316.01" y1="157.638" x2="468.526" y2="157.638" style="stroke:#181818;stroke-width:0.5;"/></g><!--class PaymentStatus--><g class="entity" data-qualified-name="PaymentStatus" id="ent0004" data-source-line="25"><rect x="7" y="291.827" width="138.531" height="145.781" fill="#F1F1F1" style="stroke:#181818;stroke-width:0.5;" rx="2.5" ry="2.5"/><ellipse cx="22" cy="307.827" rx="11" ry="11" fill="#EB937F" style="stroke:#181818;stroke-width:1;"/><path d="M26.109,313.827 L18.391,313.827 L18.391,301.436 L26.109,301.436 L26.109,303.593 L20.844,303.593 L20.844,306.264 L25.609,306.264 L25.609,308.421 L20.844,308.421 L20.844,311.671 L26.109,311.671 L26.109,313.827 Z " fill="#000"/><text x="36" y="312.674" fill="#000" font-size="14" textLength="106.531">PaymentStatus</text><line x1="8" y1="323.827" x2="144.531" y2="323.827" style="stroke:#181818;stroke-width:0.5;"/><text x="13" y="340.822" fill="#000" font-size="14" textLength="63.991">PENDING</text><text x="13" y="357.119" fill="#000" font-size="14" textLength="92.996">AUTHORIZED</text><text x="13" y="373.416" fill="#000" font-size="14" textLength="32.929">PAID</text><text x="13" y="389.713" fill="#000" font-size="14" textLength="49.185">FAILED</text><text x="13" y="406.009" fill="#000" font-size="14" textLength="83.672">CANCELLED</text><text x="13" y="422.306" fill="#000" font-size="14" textLength="77.752">REFUNDED</text><line x1="8" y1="429.608" x2="144.531" y2="429.608" style="stroke:#181818;stroke-width:0.5;"/></g><!--class ContactStatus--><g class="entity" data-qualified-name="ContactStatus" id="ent0005" data-source-line="34"><rect x="180.73" y="308.127" width="131.08" height="113.188" fill="#F1F1F1" style="stroke:#181818;stroke-width:0.5;" rx="2.5" ry="2.5"/><ellipse cx="195.73" cy="324.127" rx="11" ry="11" fill="#EB937F" style="stroke:#181818;stroke-width:1;"/><path d="M199.839,330.127 L192.121,330.127 L192.121,317.736 L199.839,317.736 L199.839,319.893 L194.574,319.893 L194.574,322.564 L199.339,322.564 L199.339,324.721 L194.574,324.721 L194.574,327.971 L199.839,327.971 L199.839,330.127 Z " fill="#000"/><text x="209.73" y="328.974" fill="#000" font-size="14" textLength="99.08">ContactStatus</text><line x1="181.73" y1="340.127" x2="310.81" y2="340.127" style="stroke:#181818;stroke-width:0.5;"/><text x="186.73" y="357.122" fill="#000" font-size="14" textLength="33.161">NEW</text><text x="186.73" y="373.419" fill="#000" font-size="14" textLength="38.931">READ</text><text x="186.73" y="389.716" fill="#000" font-size="14" textLength="58.57">REPLIED</text><text x="186.73" y="406.013" fill="#000" font-size="14" textLength="72.939">ARCHIVED</text><line x1="181.73" y1="413.314" x2="310.81" y2="413.314" style="stroke:#181818;stroke-width:0.5;"/></g><!--class Role--><g class="entity" data-qualified-name="Role" id="ent0006" data-source-line="41"><rect x="504.26" y="76.897" width="138.021" height="80.594" fill="#F1F1F1" style="stroke:#181818;stroke-width:0.5;" rx="2.5" ry="2.5"/><ellipse cx="553.622" cy="92.897" rx="11" ry="11" fill="#ADD1B2" style="stroke:#181818;stroke-width:1;"/><path d="M556.591,98.538 Q556.013,98.834 555.372,98.975 Q554.732,99.131 554.029,99.131 Q551.529,99.131 550.2,97.491 Q548.888,95.834 548.888,92.709 Q548.888,89.584 550.2,87.928 Q551.529,86.272 554.029,86.272 Q554.732,86.272 555.372,86.428 Q556.029,86.584 556.591,86.881 L556.591,89.6 Q555.966,89.022 555.372,88.756 Q554.779,88.475 554.154,88.475 Q552.81,88.475 552.122,89.553 Q551.435,90.616 551.435,92.709 Q551.435,94.803 552.122,95.881 Q552.81,96.944 554.154,96.944 Q554.779,96.944 555.372,96.678 Q555.966,96.397 556.591,95.819 L556.591,98.538 Z " fill="#000"/><text x="574.122" y="97.744" fill="#000" font-size="14" textLength="30.796">Role</text><line x1="505.26" y1="108.897" x2="641.281" y2="108.897" style="stroke:#181818;stroke-width:0.5;"/><text x="510.26" y="125.892" fill="#000" font-size="14" textLength="61.12">-id: Long</text><text x="510.26" y="142.189" fill="#000" font-size="14" textLength="126.021">-name: RoleName</text><line x1="505.26" y1="149.491" x2="641.281" y2="149.491" style="stroke:#181818;stroke-width:0.5;"/></g><!--class User--><g class="entity" data-qualified-name="User" id="ent0007" data-source-line="46"><rect x="471.17" y="251.087" width="204.186" height="227.266" fill="#F1F1F1" style="stroke:#181818;stroke-width:0.5;" rx="2.5" ry="2.5"/><ellipse cx="553.058" cy="267.087" rx="11" ry="11" fill="#ADD1B2" style="stroke:#181818;stroke-width:1;"/><path d="M556.026,272.728 Q555.448,273.024 554.808,273.165 Q554.167,273.321 553.464,273.321 Q550.964,273.321 549.636,271.681 Q548.323,270.024 548.323,266.899 Q548.323,263.774 549.636,262.118 Q550.964,260.462 553.464,260.462 Q554.167,260.462 554.808,260.618 Q555.464,260.774 556.026,261.071 L556.026,263.79 Q555.401,263.212 554.808,262.946 Q554.214,262.665 553.589,262.665 Q552.245,262.665 551.558,263.743 Q550.87,264.806 550.87,266.899 Q550.87,268.993 551.558,270.071 Q552.245,271.134 553.589,271.134 Q554.214,271.134 554.808,270.868 Q555.401,270.587 556.026,270.009 L556.026,272.728 Z " fill="#000"/><text x="573.558" y="271.934" fill="#000" font-size="14" textLength="31.91">User</text><line x1="472.17" y1="283.087" x2="674.356" y2="283.087" style="stroke:#181818;stroke-width:0.5;"/><text x="477.17" y="300.082" fill="#000" font-size="14" textLength="61.12">-id: Long</text><text x="477.17" y="316.379" fill="#000" font-size="14" textLength="124.66">-firstName: String</text><text x="477.17" y="332.676" fill="#000" font-size="14" textLength="122.555">-lastName: String</text><text x="477.17" y="348.973" fill="#000" font-size="14" textLength="99.812">-phone: String</text><text x="477.17" y="365.269" fill="#000" font-size="14" textLength="94.609">-email: String</text><text x="477.17" y="381.566" fill="#000" font-size="14" textLength="111.31">-address: String</text><text x="477.17" y="397.863" fill="#000" font-size="14" textLength="126.239">-username: String</text><text x="477.17" y="414.16" fill="#000" font-size="14" textLength="157.985">-passwordHash: String</text><text x="477.17" y="430.457" fill="#000" font-size="14" textLength="127.251">-enabled: Boolean</text><text x="477.17" y="446.754" fill="#000" font-size="14" textLength="187.605">-createdAt: LocalDateTime</text><text x="477.17" y="463.051" fill="#000" font-size="14" textLength="192.186">-updatedAt: LocalDateTime</text><line x1="472.17" y1="470.353" x2="674.356" y2="470.353" style="stroke:#181818;stroke-width:0.5;"/></g><!--class Category--><g class="entity" data-qualified-name="Category" id="ent0008" data-source-line="60"><rect x="885.35" y="811.017" width="145.841" height="113.188" fill="#F1F1F1" style="stroke:#181818;stroke-width:0.5;" rx="2.5" ry="2.5"/><ellipse cx="922.801" cy="827.017" rx="11" ry="11" fill="#ADD1B2" style="stroke:#181818;stroke-width:1;"/><path d="M925.77,832.658 Q925.191,832.954 924.551,833.095 Q923.91,833.251 923.207,833.251 Q920.707,833.251 919.379,831.611 Q918.066,829.954 918.066,826.829 Q918.066,823.704 919.379,822.048 Q920.707,820.392 923.207,820.392 Q923.91,820.392 924.551,820.548 Q925.207,820.704 925.77,821.001 L925.77,823.72 Q925.145,823.142 924.551,822.876 Q923.957,822.595 923.332,822.595 Q921.988,822.595 921.301,823.673 Q920.613,824.736 920.613,826.829 Q920.613,828.923 921.301,830.001 Q921.988,831.064 923.332,831.064 Q923.957,831.064 924.551,830.798 Q925.145,830.517 925.77,829.939 L925.77,832.658 Z " fill="#000"/><text x="941.79" y="831.864" fill="#000" font-size="14" textLength="63.95">Category</text><line x1="886.35" y1="843.017" x2="1030.191" y2="843.017" style="stroke:#181818;stroke-width:0.5;"/><text x="891.35" y="860.012" fill="#000" font-size="14" textLength="61.12">-id: Long</text><text x="891.35" y="876.309" fill="#000" font-size="14" textLength="95.703">-name: String</text><text x="891.35" y="892.606" fill="#000" font-size="14" textLength="133.841">-description: String</text><text x="891.35" y="908.903" fill="#000" font-size="14" textLength="113.463">-active: Boolean</text><line x1="886.35" y1="916.204" x2="1030.191" y2="916.204" style="stroke:#181818;stroke-width:0.5;"/></g><!--class Product--><g class="entity" data-qualified-name="Product" id="ent0009" data-source-line="67"><rect x="435.17" y="1001.507" width="204.186" height="194.672" fill="#F1F1F1" style="stroke:#181818;stroke-width:0.5;" rx="2.5" ry="2.5"/><ellipse cx="506.158" cy="1017.507" rx="11" ry="11" fill="#ADD1B2" style="stroke:#181818;stroke-width:1;"/><path d="M509.127,1023.148 Q508.548,1023.444 507.908,1023.585 Q507.267,1023.741 506.564,1023.741 Q504.064,1023.741 502.736,1022.101 Q501.423,1020.444 501.423,1017.319 Q501.423,1014.194 502.736,1012.538 Q504.064,1010.882 506.564,1010.882 Q507.267,1010.882 507.908,1011.038 Q508.564,1011.194 509.127,1011.491 L509.127,1014.21 Q508.502,1013.632 507.908,1013.366 Q507.314,1013.085 506.689,1013.085 Q505.345,1013.085 504.658,1014.163 Q503.97,1015.226 503.97,1017.319 Q503.97,1019.413 504.658,1020.491 Q505.345,1021.554 506.689,1021.554 Q507.314,1021.554 507.908,1021.288 Q508.502,1021.007 509.127,1020.429 L509.127,1023.148 Z " fill="#000"/><text x="526.658" y="1022.354" fill="#000" font-size="14" textLength="53.71">Product</text><line x1="436.17" y1="1033.507" x2="638.356" y2="1033.507" style="stroke:#181818;stroke-width:0.5;"/><text x="441.17" y="1050.502" fill="#000" font-size="14" textLength="61.12">-id: Long</text><text x="441.17" y="1066.799" fill="#000" font-size="14" textLength="95.703">-name: String</text><text x="441.17" y="1083.096" fill="#000" font-size="14" textLength="133.841">-description: String</text><text x="441.17" y="1099.393" fill="#000" font-size="14" textLength="119.499">-imageUrl: String</text><text x="441.17" y="1115.689" fill="#000" font-size="14" textLength="128.529">-price: BigDecimal</text><text x="441.17" y="1131.986" fill="#000" font-size="14" textLength="101.732">-stock: Integer</text><text x="441.17" y="1148.283" fill="#000" font-size="14" textLength="113.463">-active: Boolean</text><text x="441.17" y="1164.58" fill="#000" font-size="14" textLength="187.605">-createdAt: LocalDateTime</text><text x="441.17" y="1180.877" fill="#000" font-size="14" textLength="192.186">-updatedAt: LocalDateTime</text><line x1="436.17" y1="1188.179" x2="638.356" y2="1188.179" style="stroke:#181818;stroke-width:0.5;"/></g><!--class Cart--><g class="entity" data-qualified-name="Cart" id="ent0010" data-source-line="79"><rect x="233.17" y="596.087" width="204.186" height="96.891" fill="#F1F1F1" style="stroke:#181818;stroke-width:0.5;" rx="2.5" ry="2.5"/><ellipse cx="316.213" cy="612.087" rx="11" ry="11" fill="#ADD1B2" style="stroke:#181818;stroke-width:1;"/><path d="M319.182,617.728 Q318.604,618.024 317.963,618.165 Q317.322,618.321 316.619,618.321 Q314.119,618.321 312.791,616.681 Q311.479,615.024 311.479,611.899 Q311.479,608.774 312.791,607.118 Q314.119,605.462 316.619,605.462 Q317.322,605.462 317.963,605.618 Q318.619,605.774 319.182,606.071 L319.182,608.79 Q318.557,608.212 317.963,607.946 Q317.369,607.665 316.744,607.665 Q315.4,607.665 314.713,608.743 Q314.025,609.806 314.025,611.899 Q314.025,613.993 314.713,615.071 Q315.4,616.134 316.744,616.134 Q317.369,616.134 317.963,615.868 Q318.557,615.587 319.182,615.009 L319.182,617.728 Z " fill="#000"/><text x="336.713" y="616.934" fill="#000" font-size="14" textLength="29.6">Cart</text><line x1="234.17" y1="628.087" x2="436.356" y2="628.087" style="stroke:#181818;stroke-width:0.5;"/><text x="239.17" y="645.082" fill="#000" font-size="14" textLength="61.12">-id: Long</text><text x="239.17" y="661.379" fill="#000" font-size="14" textLength="187.605">-createdAt: LocalDateTime</text><text x="239.17" y="677.676" fill="#000" font-size="14" textLength="192.186">-updatedAt: LocalDateTime</text><line x1="234.17" y1="684.978" x2="436.356" y2="684.978" style="stroke:#181818;stroke-width:0.5;"/></g><!--class CartItem--><g class="entity" data-qualified-name="CartItem" id="ent0011" data-source-line="85"><rect x="251.66" y="819.167" width="167.21" height="96.891" fill="#F1F1F1" style="stroke:#181818;stroke-width:0.5;" rx="2.5" ry="2.5"/><ellipse cx="300.281" cy="835.167" rx="11" ry="11" fill="#ADD1B2" style="stroke:#181818;stroke-width:1;"/><path d="M303.249,840.808 Q302.671,841.104 302.031,841.245 Q301.39,841.401 300.687,841.401 Q298.187,841.401 296.859,839.761 Q295.546,838.104 295.546,834.979 Q295.546,831.854 296.859,830.198 Q298.187,828.542 300.687,828.542 Q301.39,828.542 302.031,828.698 Q302.687,828.854 303.249,829.151 L303.249,831.87 Q302.624,831.292 302.031,831.026 Q301.437,830.745 300.812,830.745 Q299.468,830.745 298.781,831.823 Q298.093,832.886 298.093,834.979 Q298.093,837.073 298.781,838.151 Q299.468,839.214 300.812,839.214 Q301.437,839.214 302.031,838.948 Q302.624,838.667 303.249,838.089 L303.249,840.808 Z " fill="#000"/><text x="320.781" y="840.014" fill="#000" font-size="14" textLength="61.469">CartItem</text><line x1="252.66" y1="851.167" x2="417.87" y2="851.167" style="stroke:#181818;stroke-width:0.5;"/><text x="257.66" y="868.162" fill="#000" font-size="14" textLength="61.12">-id: Long</text><text x="257.66" y="884.459" fill="#000" font-size="14" textLength="122.944">-quantity: Integer</text><text x="257.66" y="900.756" fill="#000" font-size="14" textLength="155.21">-unitPrice: BigDecimal</text><line x1="252.66" y1="908.058" x2="417.87" y2="908.058" style="stroke:#181818;stroke-width:0.5;"/></g><!--class Order--><g class="entity" data-qualified-name="Order" id="ent0012" data-source-line="91"><rect x="472.29" y="579.797" width="201.943" height="129.484" fill="#F1F1F1" style="stroke:#181818;stroke-width:0.5;" rx="2.5" ry="2.5"/><ellipse cx="548.996" cy="595.797" rx="11" ry="11" fill="#ADD1B2" style="stroke:#181818;stroke-width:1;"/><path d="M551.965,601.438 Q551.387,601.734 550.746,601.875 Q550.105,602.031 549.402,602.031 Q546.902,602.031 545.574,600.391 Q544.262,598.734 544.262,595.609 Q544.262,592.484 545.574,590.828 Q546.902,589.172 549.402,589.172 Q550.105,589.172 550.746,589.328 Q551.402,589.484 551.965,589.781 L551.965,592.5 Q551.34,591.922 550.746,591.656 Q550.152,591.375 549.527,591.375 Q548.184,591.375 547.496,592.453 Q546.809,593.516 546.809,595.609 Q546.809,597.703 547.496,598.781 Q548.184,599.844 549.527,599.844 Q550.152,599.844 550.746,599.578 Q551.34,599.297 551.965,598.719 L551.965,601.438 Z " fill="#000"/><text x="569.496" y="600.644" fill="#000" font-size="14" textLength="40.031">Order</text><line x1="473.29" y1="611.797" x2="673.233" y2="611.797" style="stroke:#181818;stroke-width:0.5;"/><text x="478.29" y="628.792" fill="#000" font-size="14" textLength="61.12">-id: Long</text><text x="478.29" y="645.089" fill="#000" font-size="14" textLength="149.816">-orderNumber: String</text><text x="478.29" y="661.386" fill="#000" font-size="14" textLength="189.943">-orderDate: LocalDateTime</text><text x="478.29" y="677.683" fill="#000" font-size="14" textLength="141.88">-status: OrderStatus</text><text x="478.29" y="693.979" fill="#000" font-size="14" textLength="125.699">-total: BigDecimal</text><line x1="473.29" y1="701.281" x2="673.233" y2="701.281" style="stroke:#181818;stroke-width:0.5;"/></g><!--class OrderItem--><g class="entity" data-qualified-name="OrderItem" id="ent0013" data-source-line="99"><rect x="453.66" y="811.017" width="167.21" height="113.188" fill="#F1F1F1" style="stroke:#181818;stroke-width:0.5;" rx="2.5" ry="2.5"/><ellipse cx="497.149" cy="827.017" rx="11" ry="11" fill="#ADD1B2" style="stroke:#181818;stroke-width:1;"/><path d="M500.118,832.658 Q499.54,832.954 498.899,833.095 Q498.259,833.251 497.556,833.251 Q495.056,833.251 493.727,831.611 Q492.415,829.954 492.415,826.829 Q492.415,823.704 493.727,822.048 Q495.056,820.392 497.556,820.392 Q498.259,820.392 498.899,820.548 Q499.556,820.704 500.118,821.001 L500.118,823.72 Q499.493,823.142 498.899,822.876 Q498.306,822.595 497.681,822.595 Q496.337,822.595 495.649,823.673 Q494.962,824.736 494.962,826.829 Q494.962,828.923 495.649,830.001 Q496.337,831.064 497.681,831.064 Q498.306,831.064 498.899,830.798 Q499.493,830.517 500.118,829.939 L500.118,832.658 Z " fill="#000"/><text x="517.48" y="831.864" fill="#000" font-size="14" textLength="71.9">OrderItem</text><line x1="454.66" y1="843.017" x2="619.87" y2="843.017" style="stroke:#181818;stroke-width:0.5;"/><text x="459.66" y="860.012" fill="#000" font-size="14" textLength="61.12">-id: Long</text><text x="459.66" y="876.309" fill="#000" font-size="14" textLength="122.944">-quantity: Integer</text><text x="459.66" y="892.606" fill="#000" font-size="14" textLength="155.21">-unitPrice: BigDecimal</text><text x="459.66" y="908.903" fill="#000" font-size="14" textLength="150.753">-subtotal: BigDecimal</text><line x1="454.66" y1="916.204" x2="619.87" y2="916.204" style="stroke:#181818;stroke-width:0.5;"/></g><!--class Payment--><g class="entity" data-qualified-name="Payment" id="ent0014" data-source-line="106"><rect x="655.91" y="794.727" width="194.711" height="145.781" fill="#F1F1F1" style="stroke:#181818;stroke-width:0.5;" rx="2.5" ry="2.5"/><ellipse cx="718.056" cy="810.727" rx="11" ry="11" fill="#ADD1B2" style="stroke:#181818;stroke-width:1;"/><path d="M721.024,816.368 Q720.446,816.664 719.806,816.805 Q719.165,816.961 718.462,816.961 Q715.962,816.961 714.634,815.321 Q713.321,813.664 713.321,810.539 Q713.321,807.414 714.634,805.758 Q715.962,804.102 718.462,804.102 Q719.165,804.102 719.806,804.258 Q720.462,804.414 721.024,804.711 L721.024,807.43 Q720.399,806.852 719.806,806.586 Q719.212,806.305 718.587,806.305 Q717.243,806.305 716.556,807.383 Q715.868,808.446 715.868,810.539 Q715.868,812.633 716.556,813.711 Q717.243,814.774 718.587,814.774 Q719.212,814.774 719.806,814.508 Q720.399,814.227 721.024,813.649 L721.024,816.368 Z " fill="#000"/><text x="738.556" y="815.574" fill="#000" font-size="14" textLength="61.92">Payment</text><line x1="656.91" y1="826.727" x2="849.621" y2="826.727" style="stroke:#181818;stroke-width:0.5;"/><text x="661.91" y="843.722" fill="#000" font-size="14" textLength="61.12">-id: Long</text><text x="661.91" y="860.019" fill="#000" font-size="14" textLength="148.101">-transactionId: String</text><text x="661.91" y="876.316" fill="#000" font-size="14" textLength="147.704">-amount: BigDecimal</text><text x="661.91" y="892.613" fill="#000" font-size="14" textLength="182.711">-method: PaymentMethod</text><text x="661.91" y="908.909" fill="#000" font-size="14" textLength="163.769">-status: PaymentStatus</text><text x="661.91" y="925.206" fill="#000" font-size="14" textLength="164.213">-paidAt: LocalDateTime</text><line x1="656.91" y1="932.508" x2="849.621" y2="932.508" style="stroke:#181818;stroke-width:0.5;"/></g><!--class ContactMessage--><g class="entity" data-qualified-name="ContactMessage" id="ent0015" data-source-line="115"><rect x="709.46" y="555.347" width="199.605" height="178.375" fill="#F1F1F1" style="stroke:#181818;stroke-width:0.5;" rx="2.5" ry="2.5"/><ellipse cx="747.76" cy="571.347" rx="11" ry="11" fill="#ADD1B2" style="stroke:#181818;stroke-width:1;"/><path d="M750.729,576.988 Q750.15,577.284 749.51,577.425 Q748.869,577.581 748.166,577.581 Q745.666,577.581 744.338,575.941 Q743.025,574.284 743.025,571.159 Q743.025,568.034 744.338,566.378 Q745.666,564.722 748.166,564.722 Q748.869,564.722 749.51,564.878 Q750.166,565.034 750.729,565.331 L750.729,568.05 Q750.104,567.472 749.51,567.206 Q748.916,566.925 748.291,566.925 Q746.947,566.925 746.26,568.003 Q745.572,569.066 745.572,571.159 Q745.572,573.253 746.26,574.331 Q746.947,575.394 748.291,575.394 Q748.916,575.394 749.51,575.128 Q750.104,574.847 750.729,574.269 L750.729,576.988 Z " fill="#000"/><text x="766.938" y="576.194" fill="#000" font-size="14" textLength="115.828">ContactMessage</text><line x1="710.46" y1="587.347" x2="908.065" y2="587.347" style="stroke:#181818;stroke-width:0.5;"/><text x="715.46" y="604.342" fill="#000" font-size="14" textLength="61.12">-id: Long</text><text x="715.46" y="620.639" fill="#000" font-size="14" textLength="95.703">-name: String</text><text x="715.46" y="636.936" fill="#000" font-size="14" textLength="94.609">-email: String</text><text x="715.46" y="653.233" fill="#000" font-size="14" textLength="106.743">-subject: String</text><text x="715.46" y="669.529" fill="#000" font-size="14" textLength="118.918">-message: String</text><text x="715.46" y="685.826" fill="#000" font-size="14" textLength="156.317">-status: ContactStatus</text><text x="715.46" y="702.123" fill="#000" font-size="14" textLength="187.605">-createdAt: LocalDateTime</text><text x="715.46" y="718.42" fill="#000" font-size="14" textLength="182.506">-repliedAt: LocalDateTime</text><line x1="710.46" y1="725.722" x2="908.065" y2="725.722" style="stroke:#181818;stroke-width:0.5;"/></g><!--class PasswordResetToken--><g class="entity" data-qualified-name="PasswordResetToken" id="ent0016" data-source-line="126"><rect x="943.61" y="587.947" width="197.309" height="113.188" fill="#F1F1F1" style="stroke:#181818;stroke-width:0.5;" rx="2.5" ry="2.5"/><ellipse cx="966.077" cy="603.947" rx="11" ry="11" fill="#ADD1B2" style="stroke:#181818;stroke-width:1;"/><path d="M969.045,609.588 Q968.467,609.884 967.827,610.025 Q967.186,610.181 966.483,610.181 Q963.983,610.181 962.655,608.541 Q961.342,606.884 961.342,603.759 Q961.342,600.634 962.655,598.978 Q963.983,597.322 966.483,597.322 Q967.186,597.322 967.827,597.478 Q968.483,597.634 969.045,597.931 L969.045,600.65 Q968.42,600.072 967.827,599.806 Q967.233,599.525 966.608,599.525 Q965.264,599.525 964.577,600.603 Q963.889,601.666 963.889,603.759 Q963.889,605.853 964.577,606.931 Q965.264,607.994 966.608,607.994 Q967.233,607.994 967.827,607.728 Q968.42,607.447 969.045,606.869 L969.045,609.588 Z " fill="#000"/><text x="981.736" y="608.794" fill="#000" font-size="14" textLength="148.716">PasswordResetToken</text><line x1="944.61" y1="619.947" x2="1139.919" y2="619.947" style="stroke:#181818;stroke-width:0.5;"/><text x="949.61" y="636.942" fill="#000" font-size="14" textLength="61.12">-id: Long</text><text x="949.61" y="653.239" fill="#000" font-size="14" textLength="95.648">-token: String</text><text x="949.61" y="669.536" fill="#000" font-size="14" textLength="185.309">-expiresAt: LocalDateTime</text><text x="949.61" y="685.833" fill="#000" font-size="14" textLength="104.576">-used: Boolean</text><line x1="944.61" y1="693.134" x2="1139.919" y2="693.134" style="stroke:#181818;stroke-width:0.5;"/></g><!--link Role to User--><g class="link" data-entity-1="ent0006" data-entity-2="ent0007" id="lnk17" data-source-line="133" data-link-type="association"><path d="M573.27,157.917 C573.27,183.227 573.27,217.407 573.27,250.627" style="stroke:#181818;stroke-width:1;" fill="none" id="Role-User" codeLine="133"/><text x="564.654" y="177.68" fill="#000" font-size="13">1</text><text x="549.535" y="239.908" fill="#000" font-size="13" textLength="23.036">0..*</text></g><!--link User to Order--><g class="link" data-entity-1="ent0007" data-entity-2="ent0012" id="lnk18" data-source-line="134" data-link-type="association"><path d="M560.71,478.717 C560.18,513.117 560.72,549.717 562.34,579.667" style="stroke:#181818;stroke-width:1;" fill="none" id="User-Order" codeLine="134"/><text x="551.658" y="498.571" fill="#000" font-size="13">1</text><text x="536.89" y="568.825" fill="#000" font-size="13" textLength="23.036">0..*</text></g><!--link Order to User--><g class="link" data-entity-1="ent0012" data-entity-2="ent0007" id="lnk27" data-source-line="147" data-link-type="dependency"><path d="M584.83,579.667 C586.55,549.717 587.203,518.116 586.633,483.716" style="stroke:#181818;stroke-width:1;" fill="none" id="Order-to-User" codeLine="147"/><polygon points="586.55,478.717,582.7,487.782,586.633,483.716,590.699,487.649,586.55,478.717" fill="#181818" style="stroke:#181818;stroke-width:1;stroke-linejoin:miter;stroke-miterlimit:10;"/><text x="579.795" y="568.825" fill="#000" font-size="13">*</text><text x="579.154" y="498.571" fill="#000" font-size="13">1</text></g><!--link User to Cart--><g class="link" data-entity-1="ent0007" data-entity-2="ent0010" id="lnk19" data-source-line="135" data-link-type="association"><path d="M476.46,478.717 C441.46,519.577 403.8,563.537 376.18,595.777" style="stroke:#181818;stroke-width:1;" fill="none" id="User-Cart" codeLine="135"/><text x="462.011" y="498.571" fill="#000" font-size="13">1</text><text x="356.303" y="584.942" fill="#000" font-size="13" textLength="24.807">0..1</text></g><!--link User to PasswordResetToken--><g class="link" data-entity-1="ent0007" data-entity-2="ent0016" id="lnk20" data-source-line="136" data-link-type="association"><path d="M675.72,415.367 C747.5,451.447 844.79,502.947 926.27,555.347 C941.59,565.197 957.46,576.487 972.37,587.617" style="stroke:#181818;stroke-width:1;" fill="none" id="User-PasswordResetToken" codeLine="136"/><text x="683.215" y="415.472" fill="#000" font-size="13">1</text><text x="939.452" y="576.84" fill="#000" font-size="13" textLength="23.036">0..*</text></g><!--link Category to Product--><g class="link" data-entity-1="ent0008" data-entity-2="ent0009" id="lnk21" data-source-line="138" data-link-type="association"><path d="M891.68,924.527 C883.97,930.177 876.07,935.627 868.27,940.507 C795.17,986.217 706.72,1027.617 639.65,1056.467" style="stroke:#181818;stroke-width:1;" fill="none" id="Category-Product" codeLine="138"/><text x="875.093" y="944.453" fill="#000" font-size="13">1</text><text x="647.303" y="1050.187" fill="#000" font-size="13" textLength="23.036">0..*</text></g><!--reverse link Cart to CartItem--><g class="link" data-entity-1="ent0010" data-entity-2="ent0011" id="lnk22" data-source-line="140" data-link-type="composition"><path d="M335.27,705.237 C335.27,742.427 335.27,781.827 335.27,818.997" style="stroke:#181818;stroke-width:1;" fill="none" id="Cart-backto-CartItem" codeLine="140"/><polygon points="335.27,693.237,331.27,699.237,335.27,705.237,339.27,699.237,335.27,693.237" fill="#181818" style="stroke:#181818;stroke-width:1;stroke-linejoin:miter;stroke-miterlimit:10;"/><text x="326.728" y="713.217" fill="#000" font-size="13">1</text><text x="310.656" y="808.182" fill="#000" font-size="13" textLength="23.036">1..*</text></g><!--link CartItem to Product--><g class="link" data-entity-1="ent0011" data-entity-2="ent0009" id="lnk23" data-source-line="141" data-link-type="dependency"><path d="M377.37,916.387 C399.1,941.057 423.134,968.325 449.014,997.695" style="stroke:#181818;stroke-width:1;" fill="none" id="CartItem-to-Product" codeLine="141"/><polygon points="452.32,1001.447,449.371,992.05,449.014,997.695,443.369,997.339,452.32,1001.447" fill="#181818" style="stroke:#181818;stroke-width:1;stroke-linejoin:miter;stroke-miterlimit:10;"/><text x="376.658" y="936.025" fill="#000" font-size="13">*</text><text x="437.521" y="990.488" fill="#000" font-size="13">1</text></g><!--reverse link Order to OrderItem--><g class="link" data-entity-1="ent0012" data-entity-2="ent0013" id="lnk24" data-source-line="143" data-link-type="composition"><path d="M560.872,721.621 C555.662,753.621 551.35,780.097 546.35,810.847" style="stroke:#181818;stroke-width:1;" fill="none" id="Order-backto-OrderItem" codeLine="143"/><polygon points="562.8,709.777,557.888,715.056,560.872,721.621,565.784,716.342,562.8,709.777" fill="#181818" style="stroke:#181818;stroke-width:1;stroke-linejoin:miter;stroke-miterlimit:10;"/><text x="553.323" y="729.352" fill="#000" font-size="13">1</text><text x="523.058" y="800.09" fill="#000" font-size="13" textLength="23.036">1..*</text></g><!--link OrderItem to Product--><g class="link" data-entity-1="ent0013" data-entity-2="ent0009" id="lnk25" data-source-line="144" data-link-type="dependency"><path d="M537.27,924.687 C537.27,947.757 537.27,970.137 537.27,996.247" style="stroke:#181818;stroke-width:1;" fill="none" id="OrderItem-to-Product" codeLine="144"/><polygon points="537.27,1001.247,541.27,992.247,537.27,996.247,533.27,992.247,537.27,1001.247" fill="#181818" style="stroke:#181818;stroke-width:1;stroke-linejoin:miter;stroke-miterlimit:10;"/><text x="530.953" y="944.228" fill="#000" font-size="13">*</text><text x="528.987" y="990.601" fill="#000" font-size="13">1</text></g><!--link Order to Payment--><g class="link" data-entity-1="ent0012" data-entity-2="ent0014" id="lnk26" data-source-line="146" data-link-type="association"><path d="M625.57,709.777 C647.16,736.297 672.28,767.147 694.51,794.447" style="stroke:#181818;stroke-width:1;" fill="none" id="Order-Payment" codeLine="146"/><text x="622.566" y="729.352" fill="#000" font-size="13">1</text><text x="680.346" y="783.579" fill="#000" font-size="13">1</text></g><!--link User to ContactMessage--><g class="link" data-entity-1="ent0007" data-entity-2="ent0015" id="lnk28" data-source-line="149" data-link-type="dependency"><path d="M669.26,478.717 C690.82,504.107 710.173,526.876 730.753,551.106" style="stroke:#181818;stroke-width:1;" fill="none" id="User-to-ContactMessage" codeLine="149"/><polygon points="733.99,554.917,731.212,545.468,730.753,551.106,725.115,550.647,733.99,554.917" fill="#181818" style="stroke:#181818;stroke-width:1;stroke-linejoin:miter;stroke-miterlimit:10;"/><text x="707.27" y="521.414" fill="#000" font-size="13" textLength="38.035">sends</text><text x="650.667" y="498.571" fill="#000" font-size="13" textLength="24.807">0..1</text><text x="704.077" y="544.25" fill="#000" font-size="13" textLength="23.036">0..*</text></g><?plantuml-src hLLDZvim4BtpAwmSLyfgzvf39HP8WveO14chzh9oO9fr5sngcxRRgl-znZXiueIqbP9JF6y-temz3qLL1SZ_sfAAgXUKAou0JL58oKwGcg0IK50H2TBpv3Db3T5ML6YBz9KITDigY0lESleJq9td0MjhbF4ACAa1_VAG_ldXAiRcNx39ryagohpVrZCH9OXS4TLAwvn6E8pnszuzmVCuMqLXZsH94ENv7imNSPfQA8oMyVieiwV0nq6qNEhJlanANcfWQWNgYPUsq8EFtpskCn_dSqseZyiNZmb-jDa-6cE2bp6Et4oZbFtDUf5ayQSzPp_k_ypzU7b2hpjbqNo3mmEk0MUA5CSLSFJ1Ellxg7GPsmn-5YmqNvF1N8oPlusS8bhEq9ApdJqoVI-puOPUOpOIn5ZCPogamYOmrtS-s7NWENFpn9bhWvhGoh6HiXGWfMDjDH5s9gac-PsBSa7aavkRaMq5cl83rsqHPis50AAWz5NNIq6gK9_MLFTiwpJbUNWOIQ0jEovUBe_oY4e9iX2qKPGpjzb2qM_mod6eaWfUjeMwIX5QanriX3leHj2YAqrt8HJQfx9sgNZnF4Cnqts2625wjM6AqHwlaZnMK8yLqEh6b9OtjzUMKPMU36T8QzHfB2VlGDpMMn3Ek0tIaJpVZZIRFJlKFeiehaXrWShrMhHCsks5abRgnWegGPZi7WjdSUa-zfgtJ9sfM1i5dXqBiZEN8uaTjfzUlFzUCrTQJVG2_CSgdPCbFPKlK2Z7MlUvNL_B-KYq_-rL2sWgUl5LfrRoCf2WrlmPsEXTTA3Rse-6QdaTNIfvg9YwflbeJEudQ3f5axlRsvk9-IPuviDmR3UFyGJG_xezF1Tmsedd3UhgkFPosE5QC3hifWFl3RZVSszO-CbD5_p6E0wX_TuwiSC6UQ-xz9Te4ppPFyWzS11Z1cGRxYTWaBuJvr7Ea0HMoZy0?></g></svg>